HIERARCHY
ROOT Hips
{
	OFFSET 0.000000 71.427986 0.000000
	CHANNELS 6 Xposition Yposition Zposition Xrotation Yrotation Zrotation
	JOINT Pelvis
	{
		OFFSET 0.000000 0.000000 0.000000
		CHANNELS 3 Xrotation Yrotation Zrotation
		JOINT LeftUpLeg
		{
			OFFSET 6.797100 -2.508499 -1.318700
			CHANNELS 3 Xrotation Yrotation Zrotation
			JOINT LeftLeg
			{
				OFFSET 0.069008 -29.241863 0.690200
				CHANNELS 3 Xrotation Yrotation Zrotation
				JOINT LeftFoot
				{
					OFFSET -0.069008 -29.568123 -0.266800
					CHANNELS 3 Xrotation Yrotation Zrotation
					JOINT LeftToeBase
					{
						OFFSET 3.145500 -8.631000 16.059900
						CHANNELS 3 Xrotation Yrotation Zrotation
						End Site
						{
							OFFSET 0.000000 18.501587 0.000000
						}
					}
				}
			}
			JOINT Left_ShortSleeve
			{
				OFFSET 0.265923 -10.480953 1.153800
				CHANNELS 3 Xrotation Yrotation Zrotation
				End Site
				{
					OFFSET 1.725763 19.823879 0.000000
				}
			}
		}
		JOINT RightUpLeg
		{
			OFFSET -6.797100 -2.508499 -1.318700
			CHANNELS 3 Xrotation Yrotation Zrotation
			JOINT RightLeg
			{
				OFFSET -0.082453 -29.241932 0.688000
				CHANNELS 3 Xrotation Yrotation Zrotation
				JOINT RightFoot
				{
					OFFSET 0.082453 -29.568058 -0.264600
					CHANNELS 3 Xrotation Yrotation Zrotation
					JOINT RightToeBase
					{
						OFFSET -3.115300 -8.682800 16.113400
						CHANNELS 3 Xrotation Yrotation Zrotation
						End Site
						{
							OFFSET 0.000000 18.567114 0.000000
						}
					}
				}
			}
			JOINT Right_ShortSleeve
			{
				OFFSET -0.265923 -10.480953 1.153800
				CHANNELS 3 Xrotation Yrotation Zrotation
				End Site
				{
					OFFSET -1.725766 19.823910 0.000000
				}
			}
		}
	}
	JOINT Spine
	{
		OFFSET 0.000000 13.368103 0.470500
		CHANNELS 3 Xrotation Yrotation Zrotation
		JOINT Spine1
		{
			OFFSET 0.147000 13.837402 0.538800
			CHANNELS 3 Xrotation Yrotation Zrotation
			JOINT Spine2
			{
				OFFSET 0.168000 16.242897 -1.435500
				CHANNELS 3 Xrotation Yrotation Zrotation
				JOINT Neck
				{
					OFFSET 0.217200 18.631500 -1.679100
					CHANNELS 3 Xrotation Yrotation Zrotation
					JOINT Head
					{
						OFFSET 0.000000 6.599396 1.385900
						CHANNELS 3 Xrotation Yrotation Zrotation
						JOINT Hat
						{
							OFFSET -0.532200 27.220596 -10.096100
							CHANNELS 3 Xrotation Yrotation Zrotation
							End Site
							{
								OFFSET 0.000000 22.029861 0.000000
							}
						}
						JOINT HairD
						{
							OFFSET -10.777400 17.437393 -1.325900
							CHANNELS 3 Xrotation Yrotation Zrotation
							JOINT HairD1
							{
								OFFSET -3.290299 -11.051193 1.062200
								CHANNELS 3 Xrotation Yrotation Zrotation
								End Site
								{
									OFFSET 0.000000 11.579437 0.000000
								}
							}
						}
						JOINT HairB
						{
							OFFSET -10.777400 17.437393 1.467900
							CHANNELS 3 Xrotation Yrotation Zrotation
							JOINT HairB1
							{
								OFFSET -1.561200 -12.956299 3.590200
								CHANNELS 3 Xrotation Yrotation Zrotation
								End Site
								{
									OFFSET 0.000000 13.534866 0.000000
								}
							}
						}
						JOINT HairA
						{
							OFFSET 9.713100 17.437393 1.467900
							CHANNELS 3 Xrotation Yrotation Zrotation
							JOINT HairA1
							{
								OFFSET 1.561200 -12.956299 3.590200
								CHANNELS 3 Xrotation Yrotation Zrotation
								End Site
								{
									OFFSET 0.000000 13.534866 0.000000
								}
							}
						}
						JOINT HairC
						{
							OFFSET 9.713100 17.437393 -1.325900
							CHANNELS 3 Xrotation Yrotation Zrotation
							JOINT HairC1
							{
								OFFSET 3.290300 -11.051193 1.062200
								CHANNELS 3 Xrotation Yrotation Zrotation
								End Site
								{
									OFFSET 0.000000 11.579437 0.000000
								}
							}
						}
					}
				}
				JOINT LeftShoulder
				{
					OFFSET 5.101800 15.108002 -2.763700
					CHANNELS 3 Xrotation Yrotation Zrotation
					JOINT LeftArm
					{
						OFFSET 9.825497 2.506317 -1.597400
						CHANNELS 3 Xrotation Yrotation Zrotation
						JOINT LeftForeArm
						{
							OFFSET 21.966244 0.000000 0.000000
							CHANNELS 3 Xrotation Yrotation Zrotation
							JOINT LeftHand
							{
								OFFSET 33.879036 0.000000 0.000000
								CHANNELS 3 Xrotation Yrotation Zrotation
								JOINT LeftHandThumb1
								{
									OFFSET 6.715286 -2.359680 3.363841
									CHANNELS 3 Xrotation Yrotation Zrotation
									JOINT LeftHandThumb2
									{
										OFFSET 2.507072 -1.447464 1.447461
										CHANNELS 3 Xrotation Yrotation Zrotation
										JOINT LeftHandThumb3
										{
											OFFSET 2.898338 -1.673355 1.673357
											CHANNELS 3 Xrotation Yrotation Zrotation
											End Site
											{
												OFFSET -0.295959 3.727692 -0.131651
											}
										}
									}
								}
								JOINT LeftHandIndex1
								{
									OFFSET 14.190811 -0.254547 3.840278
									CHANNELS 3 Xrotation Yrotation Zrotation
									JOINT LeftHandIndex2
									{
										OFFSET 3.551727 0.000000 -0.000000
										CHANNELS 3 Xrotation Yrotation Zrotation
										JOINT LeftHandIndex3
										{
											OFFSET 2.894196 0.000000 0.000000
											CHANNELS 3 Xrotation Yrotation Zrotation
											End Site
											{
												OFFSET -1.000603 2.690872 0.366626
											}
										}
									}
								}
								JOINT LeftHandMiddle1
								{
									OFFSET 13.776489 0.000000 0.000000
									CHANNELS 3 Xrotation Yrotation Zrotation
									JOINT LeftHandMiddle2
									{
										OFFSET 3.438232 0.000000 0.000000
										CHANNELS 3 Xrotation Yrotation Zrotation
										JOINT LeftHandMiddle3
										{
											OFFSET 3.691551 0.000000 0.000000
											CHANNELS 3 Xrotation Yrotation Zrotation
											End Site
											{
												OFFSET -1.082298 3.499527 0.457670
											}
										}
									}
								}
								JOINT LeftHandRing1
								{
									OFFSET 13.966164 -0.268127 -3.067488
									CHANNELS 3 Xrotation Yrotation Zrotation
									JOINT LeftHandRing2
									{
										OFFSET 3.162567 0.000000 0.000000
										CHANNELS 3 Xrotation Yrotation Zrotation
										JOINT LeftHandRing3
										{
											OFFSET 3.324348 0.000000 0.000000
											CHANNELS 3 Xrotation Yrotation Zrotation
											End Site
											{
												OFFSET -0.861900 3.184998 0.405154
											}
										}
									}
								}
								JOINT LeftHandPinky1
								{
									OFFSET 13.131393 -0.168503 -5.746925
									CHANNELS 3 Xrotation Yrotation Zrotation
									JOINT LeftHandPinky2
									{
										OFFSET 2.849182 0.000000 0.000000
										CHANNELS 3 Xrotation Yrotation Zrotation
										JOINT LeftHandPinky3
										{
											OFFSET 2.805038 0.000000 0.000000
											CHANNELS 3 Xrotation Yrotation Zrotation
											End Site
											{
												OFFSET -0.882500 2.642609 0.325652
											}
										}
									}
								}
							}
							JOINT Left_Sleeve
							{
								OFFSET 6.592125 -0.646545 0.805568
								CHANNELS 3 Xrotation Yrotation Zrotation
								End Site
								{
									OFFSET -0.000179 20.275787 -0.000000
								}
							}
						}
					}
				}
				JOINT RightShoulder
				{
					OFFSET -5.731700 15.108002 -2.763700
					CHANNELS 3 Xrotation Yrotation Zrotation
					JOINT RightArm
					{
						OFFSET -9.825497 2.506317 -1.597400
						CHANNELS 3 Xrotation Yrotation Zrotation
						JOINT RightForeArm
						{
							OFFSET -21.966242 0.000000 0.000000
							CHANNELS 3 Xrotation Yrotation Zrotation
							JOINT RightHand
							{
								OFFSET -33.879032 0.000000 0.000000
								CHANNELS 3 Xrotation Yrotation Zrotation
								JOINT RightHandThumb1
								{
									OFFSET -6.715286 -2.359680 3.363841
									CHANNELS 3 Xrotation Yrotation Zrotation
									JOINT RightHandThumb2
									{
										OFFSET -2.507072 -1.447464 1.447461
										CHANNELS 3 Xrotation Yrotation Zrotation
										JOINT RightHandThumb3
										{
											OFFSET -2.898338 -1.673355 1.673357
											CHANNELS 3 Xrotation Yrotation Zrotation
											End Site
											{
												OFFSET 0.295959 3.727692 -0.131651
											}
										}
									}
								}
								JOINT RightHandIndex1
								{
									OFFSET -14.190811 -0.254547 3.840278
									CHANNELS 3 Xrotation Yrotation Zrotation
									JOINT RightHandIndex2
									{
										OFFSET -3.551727 0.000000 -0.000000
										CHANNELS 3 Xrotation Yrotation Zrotation
										JOINT RightHandIndex3
										{
											OFFSET -2.894196 0.000000 0.000000
											CHANNELS 3 Xrotation Yrotation Zrotation
											End Site
											{
												OFFSET 1.000603 2.690872 0.366626
											}
										}
									}
								}
								JOINT RightHandMiddle1
								{
									OFFSET -13.776489 0.000000 0.000000
									CHANNELS 3 Xrotation Yrotation Zrotation
									JOINT RightHandMiddle2
									{
										OFFSET -3.438232 0.000000 0.000000
										CHANNELS 3 Xrotation Yrotation Zrotation
										JOINT RightHandMiddle3
										{
											OFFSET -3.691551 0.000000 0.000000
											CHANNELS 3 Xrotation Yrotation Zrotation
											End Site
											{
												OFFSET 1.082298 3.499527 0.457670
											}
										}
									}
								}
								JOINT RightHandRing1
								{
									OFFSET -13.966164 -0.268127 -3.067488
									CHANNELS 3 Xrotation Yrotation Zrotation
									JOINT RightHandRing2
									{
										OFFSET -3.162567 0.000000 0.000000
										CHANNELS 3 Xrotation Yrotation Zrotation
										JOINT RightHandRing3
										{
											OFFSET -3.324348 0.000000 0.000000
											CHANNELS 3 Xrotation Yrotation Zrotation
											End Site
											{
												OFFSET 0.861900 3.184998 0.405154
											}
										}
									}
								}
								JOINT RightHandPinky1
								{
									OFFSET -13.131393 -0.168503 -5.746925
									CHANNELS 3 Xrotation Yrotation Zrotation
									JOINT RightHandPinky2
									{
										OFFSET -2.849182 0.000000 0.000000
										CHANNELS 3 Xrotation Yrotation Zrotation
										JOINT RightHandPinky3
										{
											OFFSET -2.805038 0.000000 0.000000
											CHANNELS 3 Xrotation Yrotation Zrotation
											End Site
											{
												OFFSET 0.882500 2.642609 0.325652
											}
										}
									}
								}
							}
							JOINT Right_Sleeve
							{
								OFFSET -6.592125 -0.646545 0.805568
								CHANNELS 3 Xrotation Yrotation Zrotation
								End Site
								{
									OFFSET 0.000179 20.275787 -0.000000
								}
							}
						}
					}
				}
				JOINT Bind_Right_JacketString
				{
					OFFSET -3.534800 11.969597 7.200700
					CHANNELS 3 Xrotation Yrotation Zrotation
					JOINT Bind_Right_JacketString1
					{
						OFFSET -0.319900 -6.102600 2.794100
						CHANNELS 3 Xrotation Yrotation Zrotation
						End Site
						{
							OFFSET 0.000000 6.719452 0.000000
						}
					}
				}
				JOINT Bind_Left_JacketString
				{
					OFFSET 2.904800 11.969597 7.200700
					CHANNELS 3 Xrotation Yrotation Zrotation
					JOINT Bind_Left_JacketString1
					{
						OFFSET 0.364800 -5.904503 3.186800
						CHANNELS 3 Xrotation Yrotation Zrotation
						End Site
						{
							OFFSET 0.000000 6.719513 0.000000
						}
					}
				}
				JOINT HairE
				{
					OFFSET 5.915200 17.612701 -11.592200
					CHANNELS 3 Xrotation Yrotation Zrotation
					JOINT HairE1
					{
						OFFSET 0.289200 -7.171898 -1.284500
						CHANNELS 3 Xrotation Yrotation Zrotation
						End Site
						{
							OFFSET 0.000000 7.291756 0.000000
						}
					}
				}
				JOINT HairF
				{
					OFFSET -0.864800 17.612701 -11.592200
					CHANNELS 3 Xrotation Yrotation Zrotation
					JOINT HairF1
					{
						OFFSET 0.000000 -14.087097 -2.127501
						CHANNELS 3 Xrotation Yrotation Zrotation
						End Site
						{
							OFFSET 0.000000 14.246841 0.000000
						}
					}
				}
				JOINT HairG
				{
					OFFSET -8.087700 17.612701 -11.592200
					CHANNELS 3 Xrotation Yrotation Zrotation
					JOINT HairG1
					{
						OFFSET -0.293600 -6.081398 -0.910100
						CHANNELS 3 Xrotation Yrotation Zrotation
						End Site
						{
							OFFSET 0.000000 6.156120 0.000000
						}
					}
				}
			}
		}
	}
	JOINT Pouch
	{
		OFFSET 0.000000 4.394501 10.847300
		CHANNELS 3 Xrotation Yrotation Zrotation
		End Site
		{
			OFFSET 0.000000 21.880577 0.000000
		}
	}
	JOINT Bag
	{
		OFFSET -13.229000 4.813004 -0.593300
		CHANNELS 3 Xrotation Yrotation Zrotation
		End Site
		{
			OFFSET 0.000000 21.880577 0.000000
		}
	}
	JOINT OccupyGuyFacialAnim_Joint
	{
		OFFSET 1.000000 -70.206398 -1.655000
		CHANNELS 3 Xrotation Yrotation Zrotation
		End Site
		{
			OFFSET 0.000000 21.880577 0.000000
		}
	}
}
MOTION
Frames: 5
Frame Time: 0.016667
2.772861 30.486984 -10.439865 35.522321 3.219745 2.234993 -0.000000 0.000000 0.000000 -68.160746 -2.531602 4.975202 134.049142 13.096792 -0.811498 26.434224 8.472343 -16.529618 -0.000002 0.000002 0.000000 0.000001 -0.000000 0.000000 -63.231658 10.313774 -21.537567 133.627938 -3.458053 1.703794 17.479494 6.910609 6.312491 -0.000000 0.000000 -0.000001 -0.000001 0.000000 -0.000000 20.876384 4.785451 -5.682229 16.625264 2.079676 -1.485667 17.328759 1.234476 -2.301335 5.476091 -1.525564 3.253848 0.036688 -8.619860 6.396881 -0.000000 -0.000000 -0.000000 -0.000000 -0.000000 -0.000000 -0.000000 -0.000000 -0.000000 -0.000000 -0.000000 0.000000 -0.000000 -0.000001 0.000000 -0.000000 -0.000000 0.000000 -0.000000 -0.000001 0.000000 -0.000000 -0.000000 -0.000000 -0.000000 -0.000000 -0.000000 1.353970 -36.456647 -6.881261 -62.004512 -39.879897 -54.567740 -0.000001 -60.951843 -0.000023 -18.879876 -14.506198 -10.306279 46.706917 -54.290865 -12.631178 3.448314 53.010843 10.294978 0.000001 0.000001 -0.000001 6.697751 5.391193 -58.720448 3.793610 5.478554 -69.379866 0.000002 -0.000002 0.000001 -2.544101 3.154103 -51.895231 5.923351 5.850615 -90.709079 -0.000000 0.000002 -0.000001 0.963610 5.963252 -53.197891 4.594741 5.715054 -77.580178 -0.000002 0.000001 -0.000001 -0.907373 26.005018 -39.715491 3.064066 5.146683 -61.512615 -0.000002 -0.000000 0.000001 0.000002 0.000002 -0.000001 0.501208 13.720776 0.229928 -44.186884 22.328121 43.767910 -0.000033 66.682003 0.000041 -26.725436 16.671150 -4.018005 69.260277 51.829811 -9.321561 -17.238270 -69.068348 -27.413499 0.000001 -0.000001 -0.000000 4.914281 -3.615855 60.176501 3.071658 -4.379506 70.075951 -0.000003 0.000000 0.000004 0.967467 -5.391944 56.500394 4.691391 -4.657042 90.421555 -0.000001 0.000002 -0.000004 3.739681 -7.060301 61.039276 4.198910 -4.634622 84.346942 -0.000001 -0.000002 -0.000003 1.020341 -22.211487 53.091870 2.717052 -4.234622 65.356755 -0.000004 -0.000000 0.000000 -0.000002 0.000000 -0.000002 -0.000000 0.000000 -0.000000 -0.000000 -0.000000 -0.000001 -0.000000 0.000000 -0.000000 -0.000000 0.000000 -0.000000 -0.000000 0.000000 -0.000000 -0.000000 -0.000000 -0.000000 -0.000000 0.000000 -0.000000 -0.000000 0.000000 -0.000000 -0.000000 0.000000 -0.000000 -0.000000 -0.000000 -0.000000 -0.000000 0.000000 0.000000 -0.000000 0.000000 0.000000 -0.000000 0.000000 0.000000 
2.507191 30.401947 -10.836487 33.209032 2.343225 2.237012 0.000005 -0.000000 -0.000000 -66.401883 -2.768268 6.234531 134.714840 12.301459 -0.687006 26.430184 8.585773 -16.664280 0.000001 -0.000000 0.000002 -0.000002 0.000001 -0.000001 -62.437840 9.669082 -20.171509 134.427029 -4.146727 1.032799 17.585406 6.425018 6.428211 -0.000002 0.000000 0.000000 0.000004 0.000000 -0.000001 21.203074 4.517643 -6.399105 17.022961 1.980982 -1.805810 18.108133 1.141503 -2.575391 5.617644 -1.520870 3.438336 1.609230 -7.888320 6.936111 -0.000000 -0.000000 0.000000 -0.000000 -0.000000 0.000000 -0.000000 -0.000000 0.000000 -0.000000 -0.000000 0.000000 -0.000001 0.000001 -0.000000 -0.000000 -0.000000 0.000000 -0.000001 0.000001 -0.000000 -0.000000 -0.000000 0.000000 -0.000000 -0.000000 0.000000 0.477524 -34.381796 -9.362758 -61.426166 -41.959406 -53.402223 -0.000030 -61.272910 -0.000049 -22.963475 -13.256069 -12.254849 46.706476 -54.290390 -12.630029 3.450928 53.011277 10.293371 0.000003 0.000001 -0.000004 6.698402 5.389847 -58.719949 3.793569 5.478542 -69.379381 -0.000001 0.000002 0.000000 -2.545114 3.153142 -51.894193 5.923198 5.850600 -90.707863 -0.000000 -0.000001 0.000000 0.964042 5.963649 -53.199281 4.594582 5.715026 -77.578586 -0.000001 -0.000000 -0.000003 -0.905733 26.004151 -39.717226 3.064166 5.146757 -61.513858 0.000000 0.000001 0.000003 -0.000000 -0.000001 -0.000001 0.583492 12.269623 0.145177 -46.315236 24.522708 46.813451 -0.000008 65.396056 0.000012 -21.012618 17.831694 -3.834761 69.234158 51.862033 -9.337166 -17.171449 -69.029129 -27.340687 -0.000000 -0.000001 -0.000001 4.909853 -3.611836 60.155047 3.069783 -4.378837 70.051404 0.000002 0.000001 0.000000 0.966400 -5.390605 56.478913 4.689394 -4.657058 90.396987 0.000001 0.000001 -0.000001 3.737752 -7.059860 61.017686 4.196924 -4.634434 84.322319 0.000001 0.000003 0.000003 1.013322 -22.210944 53.073312 2.715656 -4.233978 65.337624 -0.000002 -0.000001 -0.000001 0.000002 0.000003 0.000001 0.000000 -0.000001 0.000002 0.000000 -0.000001 0.000001 0.000000 -0.000001 0.000001 0.000000 -0.000001 0.000001 0.000000 -0.000001 0.000002 0.000000 -0.000001 0.000001 0.000000 -0.000001 0.000001 0.000000 -0.000001 0.000001 0.000000 -0.000001 0.000002 0.000000 -0.000001 0.000001 0.000005 -0.000000 -0.000000 0.000005 -0.000000 -0.000000 0.000005 -0.000000 -0.000000 
2.320331 30.363461 -11.088337 31.499559 1.724265 2.211963 -0.000004 0.000000 -0.000000 -65.004994 -2.878920 7.126512 135.104475 11.870903 -0.571529 26.418238 8.585243 -16.710835 -0.000002 -0.000001 -0.000001 0.000000 0.000000 0.000001 -61.663180 9.314234 -19.206905 134.911754 -4.222639 0.664532 17.656604 5.789910 6.656685 -0.000001 0.000001 -0.000000 -0.000002 -0.000001 0.000001 21.410341 4.174642 -6.786070 17.202561 1.870331 -1.986118 18.500464 1.040076 -2.690536 5.684556 -1.489046 3.465681 2.673368 -7.397687 7.196645 0.000000 0.000000 0.000000 0.000000 0.000000 0.000000 0.000000 0.000000 0.000000 0.000000 0.000000 0.000000 0.000000 0.000000 -0.000000 0.000000 0.000000 0.000000 0.000000 0.000000 -0.000000 0.000000 0.000000 0.000000 0.000000 0.000000 0.000000 -0.501359 -31.291071 -12.871386 -60.476728 -44.977369 -51.911753 -0.000012 -61.886514 -0.000009 -28.497605 -11.740405 -12.578113 46.706142 -54.289854 -12.628680 3.453661 53.011752 10.291745 -0.000001 0.000001 -0.000002 6.699132 5.388260 -58.718733 3.793473 5.478495 -69.378254 0.000001 -0.000001 0.000003 -2.546219 3.152094 -51.892980 5.923081 5.850615 -90.706572 -0.000002 -0.000001 0.000000 0.964517 5.964045 -53.200712 4.594412 5.714999 -77.576913 -0.000002 -0.000004 -0.000001 -0.903890 26.003157 -39.719169 3.064302 5.146834 -61.515361 0.000001 0.000001 0.000001 -0.000001 -0.000001 0.000000 0.552212 11.477475 0.087593 -48.643197 26.757867 49.917143 -0.000049 63.773565 0.000058 -14.598413 19.870923 -3.658874 69.205656 51.896358 -9.358296 -17.081253 -68.975963 -27.242088 0.000001 -0.000001 0.000001 4.904432 -3.606900 60.131093 3.067699 -4.378065 70.024021 -0.000003 0.000001 -0.000001 0.965184 -5.389117 56.454956 4.687188 -4.657072 90.369584 0.000002 0.000002 -0.000000 3.735619 -7.059392 60.993603 4.194732 -4.634203 84.294916 -0.000000 0.000002 0.000000 1.005565 -22.210317 53.052627 2.714070 -4.233266 65.316266 -0.000003 0.000001 0.000001 -0.000001 0.000003 0.000001 -0.000000 0.000000 -0.000000 -0.000000 0.000001 -0.000001 -0.000000 0.000000 -0.000000 -0.000000 0.000000 -0.000000 -0.000000 0.000000 -0.000000 -0.000000 0.000001 -0.000000 -0.000000 0.000000 -0.000000 -0.000000 0.000000 -0.000000 -0.000000 0.000000 -0.000000 -0.000000 0.000001 -0.000000 -0.000004 0.000000 -0.000000 -0.000004 0.000000 -0.000000 -0.000004 0.000000 -0.000000 
2.181539 30.347507 -11.266479 30.136482 1.236757 2.180626 0.000001 -0.000000 -0.000000 -63.820222 -3.021781 7.810275 135.372041 11.687387 -0.546579 26.394928 8.418784 -16.650644 0.000001 0.000001 -0.000001 -0.000000 0.000000 -0.000000 -60.933484 9.160710 -18.503495 135.242390 -3.864227 0.482741 17.718609 5.014453 6.909560 -0.000003 -0.000003 0.000001 0.000002 -0.000000 0.000002 21.528451 3.834806 -7.031961 17.308541 1.764369 -2.107502 18.739546 0.943237 -2.743022 5.724970 -1.448772 3.430577 3.539761 -7.023167 7.344354 -0.000000 0.000001 -0.000000 -0.000000 0.000001 -0.000000 -0.000000 0.000001 -0.000000 -0.000000 0.000001 -0.000000 -0.000000 0.000001 -0.000000 -0.000000 0.000001 -0.000000 -0.000000 0.000001 -0.000000 -0.000000 0.000001 -0.000000 -0.000000 0.000001 -0.000000 -1.190607 -27.773400 -16.681117 -58.867454 -47.971618 -49.903319 0.000002 -63.757617 0.000004 -34.031267 -10.583138 -11.107777 46.705759 -54.289243 -12.627178 3.456529 53.012298 10.290115 0.000003 0.000001 -0.000000 6.699897 5.386548 -58.717422 3.793353 5.478455 -69.376963 -0.000002 0.000004 0.000000 -2.547349 3.151038 -51.891802 5.922917 5.850620 -90.705015 -0.000002 -0.000000 0.000001 0.965011 5.964487 -53.202222 4.594232 5.714954 -77.575164 -0.000001 0.000001 0.000000 -0.902028 26.002103 -39.721150 3.064448 5.146911 -61.517034 -0.000000 0.000001 0.000001 -0.000000 0.000002 -0.000000 0.425798 11.211954 0.063298 -50.733580 28.440175 52.955580 -0.000016 62.997560 -0.000001 -8.850944 21.981451 -3.713549 69.176012 51.931178 -9.384695 -16.971915 -68.909335 -27.122548 0.000002 0.000001 0.000003 4.898560 -3.601265 60.105487 3.065484 -4.377271 69.994822 0.000001 -0.000000 -0.000002 0.963872 -5.387483 56.429350 4.684794 -4.657092 90.340337 -0.000001 -0.000001 -0.000001 3.733366 -7.058903 60.967908 4.192345 -4.633964 84.265669 -0.000001 -0.000001 -0.000001 0.997330 -22.209644 53.030572 2.712389 -4.232484 65.293467 0.000004 0.000001 0.000001 0.000000 0.000000 0.000001 0.000000 0.000000 0.000000 0.000000 0.000000 0.000000 0.000000 0.000000 -0.000000 0.000000 0.000000 -0.000000 0.000000 0.000000 0.000000 0.000000 0.000000 0.000000 0.000000 0.000000 -0.000000 0.000000 0.000000 -0.000000 0.000000 0.000000 0.000000 0.000000 0.000000 0.000000 0.000001 -0.000000 -0.000000 0.000001 -0.000000 -0.000000 0.000001 -0.000000 -0.000000 
2.078561 30.348671 -11.388840 29.033273 0.847812 2.148941 0.000000 -0.000000 -0.000000 -62.807872 -3.096941 8.330095 135.534900 11.748019 -0.523717 26.360207 8.148008 -16.509464 0.000000 0.000001 -0.000001 -0.000003 0.000001 -0.000002 -60.117590 9.535192 -18.011443 135.472882 -2.930682 0.710714 17.773855 4.161452 7.173655 -0.000001 -0.000001 0.000000 -0.000001 -0.000000 0.000000 21.580961 3.497536 -7.172446 17.359178 1.662022 -2.184654 18.863260 0.849935 -2.748508 5.745519 -1.402227 3.348719 4.259350 -6.738453 7.407413 0.000000 0.000000 0.000000 0.000000 0.000000 0.000000 0.000000 0.000000 0.000000 0.000000 0.000000 0.000000 0.000000 0.000000 -0.000000 0.000000 0.000000 0.000000 0.000000 0.000000 -0.000000 0.000000 0.000000 0.000000 0.000000 0.000000 0.000000 -1.471512 -24.595014 -20.001014 -56.443700 -50.000513 -47.503464 0.000003 -67.329403 -0.000003 -38.156623 -10.095689 -8.717070 46.705814 -54.288522 -12.625219 3.459601 53.012879 10.288439 0.000001 0.000001 0.000003 6.700703 5.384718 -58.716117 3.793228 5.478398 -69.375755 0.000001 0.000001 0.000000 -2.548503 3.149961 -51.890675 5.922777 5.850622 -90.703444 0.000001 -0.000003 -0.000002 0.965573 5.964922 -53.203748 4.594041 5.714906 -77.573218 0.000000 0.000001 -0.000002 -0.900085 26.000999 -39.723171 3.064622 5.146997 -61.518817 -0.000001 -0.000001 0.000001 -0.000001 -0.000001 -0.000003 0.263111 11.153647 0.069187 -51.972067 29.135668 55.668272 -0.000018 63.901501 0.000024 -4.906420 23.250225 -3.864149 69.146356 51.965131 -9.416106 -16.845055 -68.830931 -26.983630 0.000001 -0.000001 -0.000001 4.892898 -3.595124 60.079095 3.063142 -4.376425 69.964592 -0.000001 0.000000 0.000002 0.962486 -5.385813 56.402941 4.682361 -4.657103 90.310086 0.000001 -0.000001 -0.000003 3.731048 -7.058404 60.941352 4.189913 -4.633723 84.235425 -0.000000 0.000001 -0.000001 0.988893 -22.208869 53.007800 2.710636 -4.231697 65.269889 0.000003 -0.000001 0.000000 -0.000001 -0.000001 0.000000 0.000000 -0.000000 -0.000000 -0.000000 -0.000000 -0.000001 0.000000 -0.000000 -0.000000 0.000000 -0.000000 -0.000000 0.000000 -0.000000 -0.000000 -0.000000 -0.000000 -0.000000 0.000000 -0.000000 -0.000000 0.000000 -0.000000 -0.000000 0.000000 -0.000000 -0.000000 -0.000000 -0.000000 -0.000000 0.000000 -0.000000 -0.000000 0.000000 -0.000000 -0.000000 0.000000 -0.000000 -0.000000 
